<svg width="20" height="20" viewBox="0 0 20 20" fill="none" xmlns="http://www.w3.org/2000/svg">
<circle cx="10" cy="10" r="9.5" fill="white" stroke="#7F7F7F"/>
<path d="M14.6562 13.0039C14.9023 13.2773 14.9023 13.6875 14.6562 13.9336C14.3828 14.207 13.9727 14.207 13.7266 13.9336L10.5 10.6797L7.24609 13.9336C6.97266 14.207 6.5625 14.207 6.31641 13.9336C6.04297 13.6875 6.04297 13.2773 6.31641 13.0039L9.57031 9.75L6.31641 6.49609C6.04297 6.22266 6.04297 5.8125 6.31641 5.56641C6.5625 5.29297 6.97266 5.29297 7.21875 5.56641L10.5 8.84766L13.7539 5.59375C14 5.32031 14.4102 5.32031 14.6562 5.59375C14.9297 5.83984 14.9297 6.25 14.6562 6.52344L11.4023 9.75L14.6562 13.0039Z" fill="#7F7F7F"/>
</svg>
