<svg width="14" height="12" viewBox="0 0 14 12" fill="none" xmlns="http://www.w3.org/2000/svg">
<path fill-rule="evenodd" clip-rule="evenodd" d="M9.95734 1.30028C11.0436 1.08509 12.0203 1.13124 12.6186 1.20116C12.6376 1.20338 12.658 1.21101 12.6799 1.23601C12.7041 1.26358 12.7273 1.31119 12.7273 1.37463V8.89495C12.7273 9.05889 12.5706 9.186 12.4077 9.18118C11.6322 9.15823 10.4927 9.17913 9.41769 9.41238C8.67897 9.57265 8.08827 9.84033 7.63636 10.1155V2.55178C7.63636 2.41451 7.67121 2.34491 7.69651 2.31561C7.77529 2.22438 8.01648 2.02955 8.43172 1.81917C8.8326 1.61607 9.35458 1.41969 9.95734 1.30028ZM12.7829 0.0678598C12.0894 -0.0131823 10.9562 -0.0679272 9.68316 0.184261C8.9481 0.329874 8.30844 0.569418 7.80631 0.82382C7.31853 1.07095 6.91531 1.35521 6.69071 1.61533C6.43223 1.91467 6.36364 2.26607 6.36364 2.55178V11.4285C6.36364 11.6806 6.54752 11.9028 6.81623 11.9756C7.08365 12.048 7.37223 11.9554 7.52797 11.7475L7.52914 11.746L7.52841 11.7469L7.52797 11.7475C7.52797 11.7475 7.52881 11.7464 7.52959 11.7455C7.53233 11.742 7.53803 11.7348 7.54671 11.7244C7.5641 11.7036 7.59334 11.6699 7.63472 11.6267C7.71765 11.54 7.84821 11.4159 8.02856 11.2798C8.38881 11.008 8.94402 10.6909 9.71661 10.5233C10.6303 10.325 11.639 10.3019 12.3658 10.3234C13.2438 10.3494 14 9.70828 14 8.89495V1.37463C14 0.771029 13.5511 0.157638 12.7829 0.0678598Z" fill="white"/>
<path fill-rule="evenodd" clip-rule="evenodd" d="M4.04266 1.30028C2.95637 1.08509 1.97966 1.13124 1.3814 1.20116C1.36235 1.20338 1.342 1.21101 1.32005 1.23601C1.29586 1.26358 1.27273 1.31119 1.27273 1.37463V8.89495C1.27273 9.05889 1.42939 9.186 1.59231 9.18118C2.36776 9.15823 3.50727 9.17913 4.58231 9.41238C5.32103 9.57265 5.91173 9.84033 6.36364 10.1155V2.55178C6.36364 2.41451 6.32879 2.34491 6.30349 2.31561C6.22471 2.22438 5.98352 2.02955 5.56828 1.81917C5.1674 1.61607 4.64542 1.41969 4.04266 1.30028ZM1.21714 0.0678598C1.91062 -0.0131823 3.0438 -0.0679272 4.31684 0.184261C5.0519 0.329874 5.69156 0.569418 6.19369 0.82382C6.68147 1.07095 7.08469 1.35521 7.30929 1.61533C7.56777 1.91467 7.63636 2.26607 7.63636 2.55178V11.4285C7.63636 11.6806 7.45248 11.9028 7.18377 11.9756C6.91635 12.048 6.62777 11.9554 6.47203 11.7475L6.47086 11.746L6.47159 11.7469L6.47203 11.7475C6.47203 11.7475 6.47119 11.7464 6.47041 11.7455C6.46767 11.742 6.46197 11.7348 6.45329 11.7244C6.4359 11.7036 6.40666 11.6699 6.36528 11.6267C6.28235 11.54 6.15179 11.4159 5.97144 11.2798C5.61119 11.008 5.05598 10.6909 4.28339 10.5233C3.36967 10.325 2.36098 10.3019 1.63422 10.3234C0.756215 10.3494 0 9.70828 0 8.89495V1.37463C0 0.771029 0.448911 0.157638 1.21714 0.0678598Z" fill="white"/>
</svg>
