<svg width="14" height="13" viewBox="0 0 14 13" fill="none" xmlns="http://www.w3.org/2000/svg">
<path d="M0.820312 1.11719C1.06641 1.03516 1.36719 1.08984 1.53125 1.28125L2.67969 2.40234C3.80078 1.28125 5.33203 0.625 6.97266 0.625C10.3633 0.652344 13.125 3.38672 13.125 6.75C13.125 10.1406 10.3633 12.875 7 12.875C5.55078 12.875 4.15625 12.3828 3.0625 11.4805C2.78906 11.2344 2.76172 10.8242 2.98047 10.5508C3.22656 10.2773 3.63672 10.2227 3.91016 10.4688C4.75781 11.1797 5.85156 11.5625 7 11.5625C9.65234 11.5625 11.8125 9.42969 11.8125 6.75C11.8125 4.09766 9.65234 1.9375 7 1.9375C5.6875 1.9375 4.51172 2.48438 3.60938 3.33203L5.03125 4.78125C5.22266 4.94531 5.27734 5.24609 5.19531 5.49219C5.08594 5.73828 4.83984 5.875 4.59375 5.875H1.09375C0.710938 5.875 0.4375 5.60156 0.4375 5.21875V1.71875C0.4375 1.47266 0.574219 1.22656 0.820312 1.11719Z" fill="#8C2531"/>
</svg>
