<svg width="60" height="54" viewBox="0 0 60 54" fill="none" xmlns="http://www.w3.org/2000/svg">
<path fill-rule="evenodd" clip-rule="evenodd" d="M42.6743 5.85125C47.3299 4.88289 51.5157 5.09058 54.0797 5.4052C54.1613 5.41521 54.2486 5.44954 54.3426 5.56205C54.4463 5.68609 54.5455 5.90034 54.5455 6.18582V40.0273C54.5455 40.765 53.874 41.337 53.1758 41.3153C49.8525 41.212 44.9688 41.3061 40.3615 42.3557C37.1956 43.0769 34.664 44.2815 32.7273 45.5196V11.483C32.7273 10.8653 32.8766 10.5521 32.9851 10.4202C33.3227 10.0097 34.3563 9.13297 36.1359 8.18627C37.854 7.2723 40.091 6.38858 42.6743 5.85125ZM54.7837 0.305369C51.8116 -0.0593202 46.9551 -0.305672 41.4992 0.829174C38.349 1.48443 35.6076 2.56238 33.4556 3.70719C31.3651 4.81927 29.637 6.09844 28.6745 7.26896C27.5667 8.61602 27.2727 10.1973 27.2727 11.483V51.4284C27.2727 52.5625 28.0608 53.5627 29.2124 53.8902C30.3585 54.2162 31.5953 53.7993 32.2627 52.8639L32.2677 52.8568L32.2646 52.8612L32.2627 52.8639C32.2627 52.8639 32.2663 52.859 32.2697 52.8545C32.2814 52.8388 32.3058 52.8066 32.343 52.7598C32.4176 52.6662 32.5429 52.5147 32.7202 52.32C33.0756 51.9298 33.6352 51.3715 34.4081 50.7592C35.952 49.5361 38.3315 48.109 41.6426 47.3547C45.5585 46.4626 49.8815 46.3586 52.9962 46.4553C56.7591 46.5722 60 43.6872 60 40.0273V6.18582C60 3.46963 58.0761 0.709371 54.7837 0.305369Z" fill="#BFBFBF"/>
<path fill-rule="evenodd" clip-rule="evenodd" d="M17.3257 5.85125C12.6701 4.88289 8.48426 5.09058 5.92027 5.4052C5.83866 5.41521 5.75142 5.44954 5.65736 5.56205C5.55367 5.68609 5.45455 5.90034 5.45455 6.18582V40.0273C5.45455 40.765 6.12597 41.337 6.8242 41.3153C10.1475 41.212 15.0312 41.3061 19.6385 42.3557C22.8044 43.0769 25.336 44.2815 27.2727 45.5196V11.483C27.2727 10.8653 27.1234 10.5521 27.0149 10.4202C26.6773 10.0097 25.6437 9.13297 23.8641 8.18627C22.146 7.2723 19.909 6.38858 17.3257 5.85125ZM5.21633 0.305369C8.18838 -0.0593202 13.0449 -0.305672 18.5008 0.829174C21.651 1.48443 24.3924 2.56238 26.5444 3.70719C28.6349 4.81927 30.363 6.09844 31.3255 7.26896C32.4333 8.61602 32.7273 10.1973 32.7273 11.483V51.4284C32.7273 52.5625 31.9392 53.5627 30.7876 53.8902C29.6415 54.2162 28.4047 53.7993 27.7373 52.8639L27.7323 52.8568L27.7354 52.8612L27.7373 52.8639C27.7373 52.8639 27.7337 52.859 27.7303 52.8545C27.7186 52.8388 27.6942 52.8066 27.657 52.7598C27.5824 52.6662 27.4571 52.5147 27.2798 52.32C26.9244 51.9298 26.3648 51.3715 25.5919 50.7592C24.048 49.5361 21.6685 48.109 18.3574 47.3547C14.4415 46.4626 10.1185 46.3586 7.00382 46.4553C3.24092 46.5722 0 43.6872 0 40.0273V6.18582C0 3.46963 1.92391 0.709371 5.21633 0.305369Z" fill="#BFBFBF"/>
</svg>
