<svg width="14" height="14" viewBox="0 0 14 14" fill="none" xmlns="http://www.w3.org/2000/svg">
<path fill-rule="evenodd" clip-rule="evenodd" d="M8.71609 0.85523H13.1663L13.1663 0.855231V6.86886L8.71609 6.86886V0.85523ZM13.1663 0C13.6268 0 14 0.3829 14 0.855231V6.86886C14 7.34119 13.6268 7.72409 13.1663 7.72409H8.71609C8.25567 7.72409 7.88243 7.34119 7.88243 6.86886V0.85523C7.88243 0.382899 8.25567 0 8.71609 0H13.1663Z" fill="white"/>
<path fill-rule="evenodd" clip-rule="evenodd" d="M5.28417 13.1448L0.833924 13.1448L0.833924 13.1448L0.833923 7.13114L5.28416 7.13114L5.28417 13.1448ZM0.833924 14C0.373504 14 0.000259367 13.6171 0.000259327 13.1448L0.000258814 7.13114C0.000258774 6.65881 0.373504 6.27591 0.833924 6.27591L5.28416 6.27591C5.74458 6.27591 6.11783 6.65881 6.11783 7.13114L6.11783 13.1448C6.11783 13.6171 5.74458 14 5.28416 14L0.833924 14Z" fill="white"/>
<path fill-rule="evenodd" clip-rule="evenodd" d="M0.833663 0.85523L5.2839 0.85523L5.2839 3.97233H0.833663V0.85523ZM5.2839 0C5.74432 0 6.11757 0.3829 6.11757 0.85523V3.97233C6.11757 4.44466 5.74432 4.82756 5.2839 4.82756H0.833663C0.373243 4.82756 -1.43051e-06 4.44466 -1.43051e-06 3.97233V0.85523C-1.43051e-06 0.3829 0.373244 0 0.833663 0H5.2839Z" fill="white"/>
<path fill-rule="evenodd" clip-rule="evenodd" d="M13.1662 13.1448L8.71599 13.1448L8.71599 10.0277L13.1662 10.0277L13.1662 13.1448ZM8.71599 14C8.25557 14 7.88232 13.6171 7.88232 13.1448L7.88232 10.0277C7.88232 9.55534 8.25557 9.17244 8.71599 9.17244L13.1662 9.17244C13.6266 9.17244 13.9999 9.55534 13.9999 10.0277L13.9999 13.1448C13.9999 13.6171 13.6266 14 13.1662 14L8.71599 14Z" fill="white"/>
</svg>
