<svg width="52" height="60" viewBox="0 0 52 60" fill="none" xmlns="http://www.w3.org/2000/svg">
<path fill-rule="evenodd" clip-rule="evenodd" d="M2.34589 2.22599C3.84794 0.800712 5.88515 0 8.00937 0H31.6159C32.1749 0 32.711 0.210714 33.1063 0.585786L50.8112 17.3858C51.2065 17.7609 51.4286 18.2696 51.4286 18.8V52.4C51.4286 54.4156 50.5847 56.3487 49.0827 57.774C47.5806 59.1993 45.5434 60 43.4192 60H8.00937C5.88515 60 3.84794 59.1993 2.34589 57.774C0.843842 56.3487 0 54.4156 0 52.4V7.6C0 5.58435 0.843841 3.65126 2.34589 2.22599ZM8.00937 4C7.00316 4 6.03816 4.37928 5.32667 5.05442C4.61517 5.72955 4.21546 6.64522 4.21546 7.6V52.4C4.21546 53.3548 4.61517 54.2705 5.32667 54.9456C6.03816 55.6207 7.00316 56 8.00937 56H43.4192C44.4254 56 45.3904 55.6207 46.1019 54.9456C46.8134 54.2705 47.2131 53.3548 47.2131 52.4V20.8H31.6159C30.4519 20.8 29.5082 19.9046 29.5082 18.8V4H8.00937ZM33.7237 6.82843L44.2323 16.8H33.7237V6.82843ZM11.8033 21.6C11.8033 20.4954 12.7469 19.6 13.911 19.6H19.8126C20.9767 19.6 21.9204 20.4954 21.9204 21.6C21.9204 22.7046 20.9767 23.6 19.8126 23.6H13.911C12.7469 23.6 11.8033 22.7046 11.8033 21.6ZM11.8033 32.8C11.8033 31.6954 12.7469 30.8 13.911 30.8H37.5176C38.6816 30.8 39.6253 31.6954 39.6253 32.8C39.6253 33.9046 38.6816 34.8 37.5176 34.8H13.911C12.7469 34.8 11.8033 33.9046 11.8033 32.8ZM11.8033 44C11.8033 42.8954 12.7469 42 13.911 42H37.5176C38.6816 42 39.6253 42.8954 39.6253 44C39.6253 45.1046 38.6816 46 37.5176 46H13.911C12.7469 46 11.8033 45.1046 11.8033 44Z" fill="#8C2531"/>
</svg>
