<svg width="12" height="15" viewBox="0 0 12 15" fill="none" xmlns="http://www.w3.org/2000/svg">
<path fill-rule="evenodd" clip-rule="evenodd" d="M0.547374 1.0194C0.897852 0.686833 1.3732 0.5 1.86885 0.5H7.37705C7.50748 0.5 7.63258 0.549167 7.72481 0.636683L11.856 4.55668C11.9482 4.6442 12 4.7629 12 4.88667V12.7267C12 13.197 11.8031 13.648 11.4526 13.9806C11.1021 14.3132 10.6268 14.5 10.1311 14.5H1.86885C1.3732 14.5 0.897852 14.3132 0.547374 13.9806C0.196896 13.648 0 13.197 0 12.7267V2.27333C0 1.80302 0.196896 1.35196 0.547374 1.0194ZM1.86885 1.43333C1.63407 1.43333 1.4089 1.52183 1.24289 1.67936C1.07687 1.83689 0.983607 2.05055 0.983607 2.27333V12.7267C0.983607 12.9494 1.07687 13.1631 1.24289 13.3206C1.40891 13.4782 1.63407 13.5667 1.86885 13.5667H10.1311C10.3659 13.5667 10.5911 13.4782 10.7571 13.3206C10.9231 13.1631 11.0164 12.9494 11.0164 12.7267V5.35333H7.37705C7.10543 5.35333 6.88525 5.1444 6.88525 4.88667V1.43333H1.86885ZM7.86885 2.0933L10.3209 4.42H7.86885V2.0933ZM2.7541 5.54C2.7541 5.28227 2.97429 5.07333 3.2459 5.07333H4.62295C4.89457 5.07333 5.11475 5.28227 5.11475 5.54C5.11475 5.79773 4.89457 6.00667 4.62295 6.00667H3.2459C2.97429 6.00667 2.7541 5.79773 2.7541 5.54ZM2.7541 8.15333C2.7541 7.8956 2.97429 7.68667 3.2459 7.68667H8.7541C9.02571 7.68667 9.2459 7.8956 9.2459 8.15333C9.2459 8.41107 9.02571 8.62 8.7541 8.62H3.2459C2.97429 8.62 2.7541 8.41107 2.7541 8.15333ZM2.7541 10.7667C2.7541 10.5089 2.97429 10.3 3.2459 10.3H8.7541C9.02571 10.3 9.2459 10.5089 9.2459 10.7667C9.2459 11.0244 9.02571 11.2333 8.7541 11.2333H3.2459C2.97429 11.2333 2.7541 11.0244 2.7541 10.7667Z" fill="white"/>
</svg>
