<svg width="15" height="13" viewBox="0 0 15 13" fill="none" xmlns="http://www.w3.org/2000/svg">
<path d="M5.15625 3.03125C5.86719 3.03125 6.46875 3.63281 6.46875 4.34375C6.46875 5.08203 5.86719 5.65625 5.15625 5.65625C4.41797 5.65625 3.84375 5.08203 3.84375 4.34375C3.84375 3.63281 4.41797 3.03125 5.15625 3.03125ZM13.2227 0.625C14.207 0.625 14.9727 1.41797 14.9727 2.375V11.125C14.9727 12.1094 14.1797 12.875 13.2227 12.875H2.72266C1.76562 12.875 0.972656 12.1094 0.972656 11.125V2.375C0.972656 1.41797 1.76562 0.625 2.72266 0.625H13.2227ZM13.6602 10.9609V2.375C13.6602 2.15625 13.4688 1.9375 13.2227 1.9375H2.72266C2.50391 1.9375 2.28516 2.15625 2.28516 2.375L2.3125 11.125L4.36328 8.55469C4.47266 8.44531 4.60938 8.36328 4.77344 8.36328C4.9375 8.36328 5.07422 8.44531 5.18359 8.55469L6.19531 9.8125L9.09375 5.875C9.20312 5.73828 9.33984 5.65625 9.53125 5.65625C9.69531 5.65625 9.83203 5.73828 9.91406 5.875L13.6602 10.9609Z" fill="#8C2531"/>
</svg>
