<svg width="52" height="60" viewBox="0 0 52 60" fill="none" xmlns="http://www.w3.org/2000/svg">
<path fill-rule="evenodd" clip-rule="evenodd" d="M25.7143 4.56326C20.419 4.56326 16.1263 9.05727 16.1263 14.6009C16.1263 20.1445 20.419 24.6385 25.7143 24.6385C31.0096 24.6385 35.3023 20.1445 35.3023 14.6009C35.3023 9.05727 31.0096 4.56326 25.7143 4.56326ZM11.7674 14.6009C11.7674 6.53705 18.0117 0 25.7143 0C33.4169 0 39.6611 6.53705 39.6611 14.6009C39.6611 22.6648 33.4169 29.2018 25.7143 29.2018C18.0117 29.2018 11.7674 22.6648 11.7674 14.6009ZM4.08494 41.2343C6.70048 38.4961 10.2479 36.9578 13.9469 36.9578H37.4817C41.1807 36.9578 44.7281 38.4961 47.3436 41.2343C49.9592 43.9725 51.4286 47.6863 51.4286 51.5587V57.7184C51.4286 58.9785 50.4528 60 49.2491 60C48.0455 60 47.0697 58.9785 47.0697 57.7184V51.5587C47.0697 48.8966 46.0596 46.3435 44.2615 44.461C42.4634 42.5786 40.0246 41.5211 37.4817 41.5211H13.9469C11.404 41.5211 8.96521 42.5786 7.16711 44.461C5.36901 46.3435 4.35885 48.8966 4.35885 51.5587V57.7184C4.35885 58.9785 3.38309 60 2.17943 60C0.975762 60 0 58.9785 0 57.7184V51.5587C0 47.6863 1.4694 43.9725 4.08494 41.2343Z" fill="#BFBFBF"/>
</svg>
