<svg width="12" height="14" viewBox="0 0 12 14" fill="none" xmlns="http://www.w3.org/2000/svg">
<path fill-rule="evenodd" clip-rule="evenodd" d="M6 1.06476C4.76443 1.06476 3.7628 2.11336 3.7628 3.40688C3.7628 4.70039 4.76443 5.74899 6 5.74899C7.23557 5.74899 8.2372 4.70039 8.2372 3.40688C8.2372 2.11336 7.23557 1.06476 6 1.06476ZM2.74573 3.40688C2.74573 1.52531 4.20272 0 6 0C7.79728 0 9.25427 1.52531 9.25427 3.40688C9.25427 5.28844 7.79728 6.81376 6 6.81376C4.20272 6.81376 2.74573 5.28844 2.74573 3.40688ZM0.953152 9.62134C1.56345 8.98243 2.39118 8.62349 3.25427 8.62349H8.74573C9.60882 8.62349 10.4366 8.98243 11.0468 9.62134C11.6571 10.2603 12 11.1268 12 12.0304V13.4676C12 13.7616 11.7723 14 11.4915 14C11.2106 14 10.9829 13.7616 10.9829 13.4676V12.0304C10.9829 11.4092 10.7472 10.8135 10.3277 10.3742C9.90812 9.93501 9.33908 9.68825 8.74573 9.68825H3.25427C2.66092 9.68825 2.09188 9.93501 1.67233 10.3742C1.25277 10.8135 1.01707 11.4092 1.01707 12.0304V13.4676C1.01707 13.7616 0.789388 14 0.508533 14C0.227678 14 0 13.7616 0 13.4676V12.0304C0 11.1268 0.342859 10.2603 0.953152 9.62134Z" fill="white"/>
</svg>
