<svg width="60" height="60" viewBox="0 0 60 60" fill="none" xmlns="http://www.w3.org/2000/svg">
<path fill-rule="evenodd" clip-rule="evenodd" d="M26.3483 18.7149C25.6751 19.2204 25.2273 19.9453 25.2273 21.1364C25.2273 22.6426 24.0062 23.8636 22.5 23.8636C20.9938 23.8636 19.7727 22.6426 19.7727 21.1364C19.7727 18.2365 21.0223 15.8932 23.0729 14.3533C25.0329 12.8814 27.5363 12.2727 30 12.2727C32.9399 12.2727 35.4191 13.1568 37.2097 14.85C38.9865 16.53 39.8306 18.7668 39.9631 21.0014C40.2225 25.3752 37.811 30.1875 33.3986 32.7088C32.9974 32.9381 32.749 33.1259 32.5988 33.2612C32.9408 34.3324 32.5934 35.5485 31.6457 36.2657C30.4447 37.1746 28.7342 36.9377 27.8253 35.7367L27.8196 35.7292C27.1654 34.8491 26.9046 33.6955 27.0374 32.614C27.2656 30.7554 28.562 29.1903 30.6923 27.973C33.3156 26.474 34.654 23.6158 34.5181 21.3243C34.453 20.2261 34.0631 19.3815 33.4622 18.8133C32.8751 18.2582 31.8329 17.7273 30 17.7273C28.3586 17.7273 27.112 18.1414 26.3483 18.7149Z" fill="#BFBFBF"/>
<path d="M30 47.7273C32.2593 47.7273 34.0909 45.8957 34.0909 43.6364C34.0909 41.377 32.2593 39.5455 30 39.5455C27.7407 39.5455 25.9091 41.377 25.9091 43.6364C25.9091 45.8957 27.7407 47.7273 30 47.7273Z" fill="#BFBFBF"/>
<path fill-rule="evenodd" clip-rule="evenodd" d="M0 30C0 13.4315 13.4315 0 30 0C46.5685 0 60 13.4315 60 30C60 46.5685 46.5685 60 30 60C13.4315 60 0 46.5685 0 30ZM30 5.45455C16.4439 5.45455 5.45455 16.4439 5.45455 30C5.45455 43.5561 16.4439 54.5455 30 54.5455C43.5561 54.5455 54.5455 43.5561 54.5455 30C54.5455 16.4439 43.5561 5.45455 30 5.45455Z" fill="#BFBFBF"/>
</svg>
