<svg width="14" height="14" viewBox="0 0 14 14" fill="none" xmlns="http://www.w3.org/2000/svg">
<path fill-rule="evenodd" clip-rule="evenodd" d="M6.14794 4.36681C5.99087 4.48477 5.88636 4.6539 5.88636 4.93182C5.88636 5.28327 5.60145 5.56818 5.25 5.56818C4.89855 5.56818 4.61364 5.28327 4.61364 4.93182C4.61364 4.25519 4.90521 3.70841 5.38367 3.3491C5.84101 3.00565 6.42514 2.86364 7 2.86364C7.68597 2.86364 8.26445 3.06993 8.68227 3.46499C9.09686 3.857 9.29381 4.37892 9.32473 4.90032C9.38525 5.92089 8.82256 7.04374 7.793 7.63206C7.69938 7.68556 7.64143 7.72938 7.60638 7.76095C7.68618 8.0109 7.60512 8.29466 7.38401 8.46198C7.10376 8.67407 6.70464 8.6188 6.49256 8.33855L6.49125 8.33682C6.33859 8.13145 6.27773 7.86227 6.30872 7.60993C6.36198 7.17627 6.66446 6.81107 7.16155 6.52703C7.77363 6.17726 8.08594 5.51035 8.05423 4.97566C8.03904 4.71943 7.94806 4.52236 7.80785 4.38978C7.67087 4.26025 7.42767 4.13636 7 4.13636C6.617 4.13636 6.32614 4.23298 6.14794 4.36681Z" fill="white"/>
<path d="M7 11.1364C7.52718 11.1364 7.95455 10.709 7.95455 10.1818C7.95455 9.65464 7.52718 9.22727 7 9.22727C6.47282 9.22727 6.04545 9.65464 6.04545 10.1818C6.04545 10.709 6.47282 11.1364 7 11.1364Z" fill="white"/>
<path fill-rule="evenodd" clip-rule="evenodd" d="M0 7C0 3.13401 3.13401 0 7 0C10.866 0 14 3.13401 14 7C14 10.866 10.866 14 7 14C3.13401 14 0 10.866 0 7ZM7 1.27273C3.83691 1.27273 1.27273 3.83691 1.27273 7C1.27273 10.1631 3.83691 12.7273 7 12.7273C10.1631 12.7273 12.7273 10.1631 12.7273 7C12.7273 3.83691 10.1631 1.27273 7 1.27273Z" fill="white"/>
</svg>
