<svg width="14" height="14" viewBox="0 0 14 14" fill="none" xmlns="http://www.w3.org/2000/svg">
<path fill-rule="evenodd" clip-rule="evenodd" d="M5.94236 0.610585H1.22019C0.883247 0.610585 0.610097 0.883735 0.610097 1.22068V5.94285C0.610097 6.27979 0.883247 6.55294 1.22019 6.55294H5.94236C6.27931 6.55294 6.55246 6.27979 6.55246 5.94285V1.22068C6.55246 0.883735 6.27931 0.610585 5.94236 0.610585ZM1.22019 0.000488281C0.546299 0.000488281 0 0.546788 0 1.22068V5.94285C0 6.61674 0.5463 7.16304 1.22019 7.16304H5.94236C6.61625 7.16304 7.16255 6.61674 7.16255 5.94285V1.22068C7.16255 0.546788 6.61625 0.000488281 5.94236 0.000488281H1.22019Z" fill="white"/>
<path fill-rule="evenodd" clip-rule="evenodd" d="M12.7798 0.610097H8.05764C7.72069 0.610097 7.44754 0.883247 7.44754 1.22019V5.94236C7.44754 6.27931 7.72069 6.55246 8.05764 6.55246H12.7798C13.1168 6.55246 13.3899 6.27931 13.3899 5.94236V1.22019C13.3899 0.883247 13.1168 0.610097 12.7798 0.610097ZM8.05764 0C7.38375 0 6.83745 0.5463 6.83745 1.22019V5.94236C6.83745 6.61625 7.38375 7.16255 8.05764 7.16255H12.7798C13.4537 7.16255 14 6.61625 14 5.94236V1.22019C14 0.546299 13.4537 0 12.7798 0H8.05764Z" fill="white"/>
<path fill-rule="evenodd" clip-rule="evenodd" d="M5.94237 7.44701H1.2202C0.883254 7.44701 0.610104 7.72016 0.610104 8.05711V12.7793C0.610104 13.1162 0.883254 13.3894 1.2202 13.3894H5.94237C6.27931 13.3894 6.55246 13.1162 6.55246 12.7793V8.05711C6.55246 7.72016 6.27931 7.44701 5.94237 7.44701ZM1.2202 6.83691C0.546307 6.83691 7.62939e-06 7.38321 7.62939e-06 8.05711V12.7793C7.62939e-06 13.4532 0.546308 13.9995 1.2202 13.9995H5.94237C6.61626 13.9995 7.16256 13.4532 7.16256 12.7793V8.05711C7.16256 7.38321 6.61626 6.83691 5.94237 6.83691H1.2202Z" fill="white"/>
<path fill-rule="evenodd" clip-rule="evenodd" d="M12.7798 7.44701H8.05764C7.72069 7.44701 7.44754 7.72016 7.44754 8.05711V12.7793C7.44754 13.1162 7.72069 13.3894 8.05764 13.3894H12.7798C13.1168 13.3894 13.3899 13.1162 13.3899 12.7793V8.05711C13.3899 7.72016 13.1168 7.44701 12.7798 7.44701ZM8.05764 6.83691C7.38375 6.83691 6.83745 7.38321 6.83745 8.05711V12.7793C6.83745 13.4532 7.38375 13.9995 8.05764 13.9995H12.7798C13.4537 13.9995 14 13.4532 14 12.7793V8.05711C14 7.38321 13.4537 6.83691 12.7798 6.83691H8.05764Z" fill="white"/>
<path d="M3.88974 5.32002L3.56029 4.87709C3.46267 4.89661 3.3675 4.90637 3.27476 4.90637C3.03316 4.90637 2.81109 4.85024 2.60854 4.73798C2.40843 4.62573 2.24858 4.46954 2.129 4.26943C2.01186 4.06688 1.95329 3.83992 1.95329 3.58856C1.95329 3.3372 2.01186 3.11147 2.129 2.91135C2.24858 2.71124 2.40843 2.55506 2.60854 2.4428C2.81109 2.33054 3.03316 2.27441 3.27476 2.27441C3.51636 2.27441 3.73722 2.33054 3.93733 2.4428C4.13988 2.55506 4.2985 2.71124 4.4132 2.91135C4.53034 3.11147 4.58891 3.3372 4.58891 3.58856C4.58891 3.8082 4.54376 4.00953 4.45347 4.19256C4.36562 4.37315 4.24238 4.52323 4.08375 4.64281L4.64748 5.32002H3.88974ZM2.59389 3.58856C2.59389 3.81552 2.6549 3.99733 2.77692 4.13399C2.90138 4.26821 3.06733 4.33532 3.27476 4.33532C3.47975 4.33532 3.64326 4.26699 3.76528 4.13033C3.88974 3.99367 3.95197 3.81308 3.95197 3.58856C3.95197 3.36161 3.88974 3.18102 3.76528 3.0468C3.64326 2.91013 3.47975 2.8418 3.27476 2.8418C3.06733 2.8418 2.90138 2.90891 2.77692 3.04314C2.6549 3.17736 2.59389 3.35917 2.59389 3.58856Z" fill="white"/>
<path d="M10.1328 2.67768V4.21512C10.1328 4.36886 10.1706 4.48722 10.2463 4.5702C10.3219 4.65317 10.433 4.69466 10.5794 4.69466C10.7258 4.69466 10.8381 4.65317 10.9162 4.5702C10.9943 4.48722 11.0333 4.36886 11.0333 4.21512V2.67768H11.6593V4.21146C11.6593 4.44085 11.6105 4.63487 11.5128 4.79349C11.4152 4.95212 11.2834 5.07169 11.1175 5.15223C10.954 5.23276 10.771 5.27303 10.5684 5.27303C10.3659 5.27303 10.1841 5.23398 10.023 5.15589C9.86436 5.07536 9.73868 4.95578 9.64594 4.79715C9.55321 4.63609 9.50684 4.44085 9.50684 4.21146V2.67768H10.1328Z" fill="white"/>
<path d="M3.89488 8.97584V11.5456H3.26892V8.97584H3.89488Z" fill="white"/>
<path d="M10.2794 11.0331H11.3849V11.5456H9.56922V11.0697L10.6674 9.48832H9.56922V8.97584H11.3849V9.45172L10.2794 11.0331Z" fill="white"/>
</svg>
