<svg width="60" height="60" viewBox="0 0 60 60" fill="none" xmlns="http://www.w3.org/2000/svg">
<path fill-rule="evenodd" clip-rule="evenodd" d="M25.4676 2.61499H5.22948C3.7854 2.61499 2.61474 3.78565 2.61474 5.22973V25.4679C2.61474 26.912 3.7854 28.0826 5.22949 28.0826H25.4677C26.9117 28.0826 28.0824 26.912 28.0824 25.4679V5.22973C28.0824 3.78565 26.9117 2.61499 25.4676 2.61499ZM5.22948 0.000244141C2.34132 0.000244141 0 2.34157 0 5.22973V25.4679C0 28.3561 2.34132 30.6974 5.22949 30.6974H25.4677C28.3558 30.6974 30.6971 28.3561 30.6971 25.4679V5.22973C30.6971 2.34156 28.3558 0.000244141 25.4676 0.000244141H5.22948Z" fill="#BFBFBF"/>
<path fill-rule="evenodd" clip-rule="evenodd" d="M54.7715 2.61474H34.5333C33.0892 2.61474 31.9185 3.7854 31.9185 5.22949V25.4677C31.9185 26.9117 33.0892 28.0824 34.5333 28.0824H54.7715C56.2155 28.0824 57.3862 26.9117 57.3862 25.4676V5.22948C57.3862 3.7854 56.2155 2.61474 54.7715 2.61474ZM34.5333 0C31.6451 0 29.3038 2.34132 29.3038 5.22949V25.4677C29.3038 28.3558 31.6451 30.6971 34.5333 30.6971H54.7715C57.6596 30.6971 60.0009 28.3558 60.0009 25.4676V5.22948C60.0009 2.34132 57.6596 0 54.7715 0H34.5333Z" fill="#BFBFBF"/>
<path fill-rule="evenodd" clip-rule="evenodd" d="M25.4677 31.9172H5.22951C3.78543 31.9172 2.61477 33.0879 2.61477 34.532V54.7701C2.61477 56.2142 3.78543 57.3849 5.22952 57.3849H25.4677C26.9118 57.3849 28.0824 56.2142 28.0824 54.7701V34.532C28.0824 33.0879 26.9118 31.9172 25.4677 31.9172ZM5.22951 29.3025C2.34135 29.3025 3.05176e-05 31.6438 3.05176e-05 34.532V54.7701C3.05176e-05 57.6583 2.34135 59.9996 5.22952 59.9996H25.4677C28.3558 59.9996 30.6972 57.6583 30.6972 54.7701V34.532C30.6972 31.6438 28.3558 29.3025 25.4677 29.3025H5.22951Z" fill="#BFBFBF"/>
<path fill-rule="evenodd" clip-rule="evenodd" d="M54.7715 31.9172H34.5333C33.0892 31.9172 31.9185 33.0879 31.9185 34.532V54.7701C31.9185 56.2142 33.0892 57.3849 34.5333 57.3849H54.7715C56.2155 57.3849 57.3862 56.2142 57.3862 54.7701V34.532C57.3862 33.0879 56.2155 31.9172 54.7715 31.9172ZM34.5333 29.3025C31.6451 29.3025 29.3038 31.6438 29.3038 34.532V54.7701C29.3038 57.6583 31.6451 59.9996 34.5333 59.9996H54.7715C57.6596 59.9996 60.0009 57.6583 60.0009 54.7701V34.532C60.0009 31.6438 57.6596 29.3025 54.7715 29.3025H34.5333Z" fill="#BFBFBF"/>
<path d="M16.6706 22.8003L15.2586 20.902C14.8403 20.9857 14.4324 21.0276 14.0349 21.0276C12.9995 21.0276 12.0477 20.787 11.1796 20.3059C10.322 19.8248 9.63693 19.1554 9.12444 18.2978C8.62241 17.4297 8.3714 16.457 8.3714 15.3797C8.3714 14.3024 8.62241 13.335 9.12444 12.4773C9.63693 11.6197 10.322 10.9503 11.1796 10.4692C12.0477 9.98811 12.9995 9.74756 14.0349 9.74756C15.0704 9.74756 16.0169 9.98811 16.8745 10.4692C17.7426 10.9503 18.4225 11.6197 18.914 12.4773C19.4161 13.335 19.6671 14.3024 19.6671 15.3797C19.6671 16.321 19.4736 17.1839 19.0866 17.9683C18.7101 18.7423 18.1819 19.3855 17.5021 19.898L19.9181 22.8003H16.6706ZM11.1169 15.3797C11.1169 16.3524 11.3784 17.1316 11.9013 17.7173C12.4347 18.2925 13.1459 18.5802 14.0349 18.5802C14.9135 18.5802 15.6142 18.2873 16.1372 17.7016C16.6706 17.1159 16.9373 16.3419 16.9373 15.3797C16.9373 14.407 16.6706 13.6331 16.1372 13.0578C15.6142 12.4721 14.9135 12.1793 14.0349 12.1793C13.1459 12.1793 12.4347 12.4669 11.9013 13.0421C11.3784 13.6174 11.1169 14.3966 11.1169 15.3797Z" fill="#BFBFBF"/>
<path d="M43.427 11.4758V18.065C43.427 18.7239 43.5891 19.2312 43.9133 19.5868C44.2376 19.9424 44.7134 20.1202 45.341 20.1202C45.9685 20.1202 46.4496 19.9424 46.7843 19.5868C47.119 19.2312 47.2863 18.7239 47.2863 18.065V11.4758H49.9691V18.0493C49.9691 19.0325 49.7599 19.8639 49.3415 20.5438C48.9232 21.2236 48.3584 21.7361 47.6472 22.0812C46.9464 22.4264 46.162 22.599 45.2939 22.599C44.4258 22.599 43.6466 22.4316 42.9563 22.0969C42.2765 21.7518 41.7379 21.2393 41.3404 20.5595C40.943 19.8692 40.7443 19.0325 40.7443 18.0493V11.4758H43.427Z" fill="#BFBFBF"/>
<path d="M16.6926 38.4684V49.4817H14.0099V38.4684H16.6926Z" fill="#BFBFBF"/>
<path d="M44.0552 47.2853H48.7931V49.4817H41.0116V47.4422L45.7182 40.6648H41.0116V38.4684H48.7931V40.5079L44.0552 47.2853Z" fill="#BFBFBF"/>
</svg>
