<svg width="60" height="54" viewBox="0 0 60 54" fill="none" xmlns="http://www.w3.org/2000/svg">
<path fill-rule="evenodd" clip-rule="evenodd" d="M22.5 0C14.9061 0 8.75 6.04416 8.75 13.5C8.75 20.9558 14.9061 27 22.5 27C30.0939 27 36.25 20.9558 36.25 13.5C36.25 6.04416 30.0939 0 22.5 0ZM13.75 13.5C13.75 8.75537 17.6675 4.90909 22.5 4.90909C27.3325 4.90909 31.25 8.75537 31.25 13.5C31.25 18.2446 27.3325 22.0909 22.5 22.0909C17.6675 22.0909 13.75 18.2446 13.75 13.5Z" fill="#8C2531"/>
<path d="M38.75 0C37.3693 0 36.25 1.09894 36.25 2.45455C36.25 3.81015 37.3693 4.90909 38.75 4.90909C43.5825 4.90909 47.5 8.75537 47.5 13.5C47.5 18.2446 43.5825 22.0909 38.75 22.0909C37.3693 22.0909 36.25 23.1898 36.25 24.5455C36.25 25.9011 37.3693 27 38.75 27C46.3439 27 52.5 20.9558 52.5 13.5C52.5 6.04416 46.3439 0 38.75 0Z" fill="#8C2531"/>
<path d="M47.7091 34.4021C48.2619 33.1598 49.7357 32.5928 51.0009 33.1356C56.2934 35.4059 60 40.5934 60 46.6363V51.5454C60 52.901 58.8807 54 57.5 54C56.1193 54 55 52.901 55 51.5454V46.6363C55 42.614 52.5361 39.1513 48.9991 37.634C47.7339 37.0913 47.1563 35.6443 47.7091 34.4021Z" fill="#8C2531"/>
<path d="M15 31.9091C6.71573 31.9091 0 38.5027 0 46.6364V51.5455C0 52.9011 1.11929 54 2.5 54C3.88071 54 5 52.9011 5 51.5455V46.6364C5 41.2139 9.47715 36.8182 15 36.8182H30C35.5228 36.8182 40 41.2139 40 46.6364V51.5455C40 52.9011 41.1193 54 42.5 54C43.8807 54 45 52.9011 45 51.5455V46.6364C45 38.5027 38.2843 31.9091 30 31.9091H15Z" fill="#8C2531"/>
</svg>
