<svg width="14" height="12" viewBox="0 0 14 12" fill="none" xmlns="http://www.w3.org/2000/svg">
<path fill-rule="evenodd" clip-rule="evenodd" d="M5.25 0C3.47809 0 2.04167 1.34315 2.04167 3C2.04167 4.65685 3.47809 6 5.25 6C7.02191 6 8.45833 4.65685 8.45833 3C8.45833 1.34315 7.02191 0 5.25 0ZM3.20833 3C3.20833 1.94564 4.12242 1.09091 5.25 1.09091C6.37758 1.09091 7.29166 1.94564 7.29166 3C7.29166 4.05436 6.37758 4.90909 5.25 4.90909C4.12242 4.90909 3.20833 4.05436 3.20833 3Z" fill="white"/>
<path d="M9.04166 0C8.7195 0 8.45833 0.244208 8.45833 0.545455C8.45833 0.846701 8.7195 1.09091 9.04166 1.09091C10.1692 1.09091 11.0833 1.94564 11.0833 3C11.0833 4.05436 10.1692 4.90909 9.04166 4.90909C8.7195 4.90909 8.45833 5.1533 8.45833 5.45455C8.45833 5.75579 8.7195 6 9.04166 6C10.8136 6 12.25 4.65685 12.25 3C12.25 1.34315 10.8136 0 9.04166 0Z" fill="white"/>
<path d="M11.1321 7.6449C11.2611 7.36885 11.605 7.24285 11.9002 7.36346C13.1351 7.86798 14 9.02075 14 10.3636V11.4545C14 11.7558 13.7388 12 13.4167 12C13.0945 12 12.8333 11.7558 12.8333 11.4545V10.3636C12.8333 9.46979 12.2584 8.70029 11.4331 8.36312C11.1379 8.24251 11.0031 7.92095 11.1321 7.6449Z" fill="white"/>
<path d="M3.5 7.09091C1.567 7.09091 0 8.55616 0 10.3636V11.4545C0 11.7558 0.261167 12 0.583333 12C0.905499 12 1.16667 11.7558 1.16667 11.4545V10.3636C1.16667 9.15865 2.21133 8.18182 3.5 8.18182H7C8.28866 8.18182 9.33333 9.15865 9.33333 10.3636V11.4545C9.33333 11.7558 9.5945 12 9.91666 12C10.2388 12 10.5 11.7558 10.5 11.4545V10.3636C10.5 8.55616 8.93299 7.09091 7 7.09091H3.5Z" fill="white"/>
</svg>
