<svg width="16" height="13" viewBox="0 0 16 13" fill="none" xmlns="http://www.w3.org/2000/svg">
<path d="M15.6406 6.28516C15.6953 6.42188 15.75 6.61328 15.75 6.75C15.75 6.88672 15.6953 7.10547 15.6406 7.24219C14.1641 10.6055 11.2109 12.875 7.875 12.875C4.51172 12.875 1.55859 10.6055 0.0820312 7.24219C0.0273438 7.10547 0 6.88672 0 6.75C0 6.61328 0.0273438 6.42188 0.0820312 6.28516C1.55859 2.92188 4.51172 0.625 7.875 0.625C11.2109 0.625 14.1641 2.92188 15.6406 6.28516ZM7.875 11.5625C10.582 11.5625 13.0703 9.73047 14.4102 6.75C13.0977 3.79688 10.582 1.9375 7.875 1.9375C5.14062 1.9375 2.65234 3.79688 1.3125 6.77734C2.625 9.73047 5.14062 11.5625 7.875 11.5625ZM7.875 3.25C9.78906 3.25 11.375 4.83594 11.375 6.77734C11.375 8.69141 9.78906 10.25 7.875 10.25C5.93359 10.25 4.375 8.69141 4.375 6.75C4.375 4.83594 5.93359 3.25 7.875 3.25ZM7.875 8.9375C9.07812 8.9375 10.0625 7.98047 10.0625 6.77734C10.0625 5.54688 9.07812 4.5625 7.875 4.5625C7.84766 4.5625 7.82031 4.58984 7.79297 4.58984C7.84766 4.72656 7.875 4.86328 7.875 5C7.875 5.98438 7.08203 6.75 6.125 6.75C5.96094 6.75 5.82422 6.75 5.6875 6.69531C5.6875 6.72266 5.6875 6.75 5.6875 6.75C5.6875 7.98047 6.64453 8.9375 7.875 8.9375Z" fill="#7F7F7F"/>
</svg>
