<svg width="14" height="15" viewBox="0 0 14 15" fill="none" xmlns="http://www.w3.org/2000/svg">
<path d="M7 0.75C10.8555 0.75 14 3.89453 14 7.75C14 11.6328 10.8555 14.75 7 14.75C3.11719 14.75 0 11.6328 0 7.75C0 3.89453 3.11719 0.75 7 0.75ZM9.1875 9.03516L7.90234 7.77734L9.1875 6.49219C9.46094 6.21875 9.46094 5.80859 9.1875 5.5625C8.94141 5.28906 8.53125 5.28906 8.28516 5.5625L7 6.84766L5.6875 5.53516C5.44141 5.26172 5.03125 5.26172 4.78516 5.53516C4.51172 5.78125 4.51172 6.19141 4.78516 6.46484L6.07031 7.75L4.78516 9.03516C4.51172 9.30859 4.51172 9.71875 4.78516 9.96484C5.03125 10.2383 5.44141 10.2383 5.6875 9.96484L7 8.67969L8.25781 9.96484C8.50391 10.2383 8.91406 10.2383 9.1875 9.96484C9.43359 9.71875 9.43359 9.30859 9.1875 9.03516Z" fill="#8C2531"/>
</svg>
