<svg width="14" height="15" viewBox="0 0 14 15" fill="none" xmlns="http://www.w3.org/2000/svg">
<path d="M9.59766 6.41016C9.84375 6.16406 10.2539 6.16406 10.5 6.4375C10.7734 6.68359 10.7734 7.09375 10.5 7.33984L7.4375 10.4023C7.32812 10.5391 7.16406 10.5938 7 10.5938C6.80859 10.5938 6.64453 10.5391 6.50781 10.4023L3.44531 7.33984C3.17188 7.09375 3.17188 6.68359 3.44531 6.41016C3.69141 6.16406 4.10156 6.16406 4.375 6.41016L7 9.03516L9.59766 6.41016ZM7 0.75C10.8555 0.75 14 3.89453 14 7.75C14 11.6328 10.8555 14.75 7 14.75C3.11719 14.75 0 11.6328 0 7.75C0 3.89453 3.11719 0.75 7 0.75ZM7 13.4375C10.1172 13.4375 12.6875 10.8945 12.6875 7.75C12.6875 4.63281 10.1172 2.0625 7 2.0625C3.85547 2.0625 1.3125 4.63281 1.3125 7.75C1.3125 10.8945 3.85547 13.4375 7 13.4375Z" fill="#7F7F7F"/>
</svg>
