<svg width="14" height="15" viewBox="0 0 14 15" fill="none" xmlns="http://www.w3.org/2000/svg">
<path d="M9.84375 6.875C10.1992 6.875 10.5 7.17578 10.5 7.53125V7.96875C10.5 8.35156 10.1992 8.625 9.84375 8.625L7.4375 8.65234V10.1836C7.4375 10.4297 7.27344 10.6758 7.02734 10.7578C6.80859 10.8672 6.50781 10.8398 6.31641 10.6484L3.69141 8.26953C3.55469 8.16016 3.5 7.99609 3.5 7.77734C3.5 7.61328 3.55469 7.42188 3.69141 7.3125L6.31641 4.87891C6.50781 4.6875 6.78125 4.66016 7.02734 4.74219C7.27344 4.85156 7.4375 5.09766 7.4375 5.34375V6.875H9.84375ZM7 0.75C10.8555 0.75 14 3.89453 14 7.75C14 11.6328 10.8555 14.75 7 14.75C3.11719 14.75 0 11.6328 0 7.75C0 3.89453 3.11719 0.75 7 0.75ZM7 13.4375C10.1172 13.4375 12.6875 10.8945 12.6875 7.75C12.6875 4.63281 10.1172 2.0625 7 2.0625C3.85547 2.0625 1.3125 4.63281 1.3125 7.75C1.3125 10.8945 3.85547 13.4375 7 13.4375Z" fill="#7F7F7F"/>
</svg>
