<svg width="15" height="15" viewBox="0 0 15 15" fill="none" xmlns="http://www.w3.org/2000/svg">
<path d="M14.7266 2.69141C14.8906 2.85547 15 3.07422 15 3.32031V9.5C15 10.4844 14.207 11.25 13.25 11.25H8C7.01562 11.25 6.25 10.4844 6.22266 9.5V2.5C6.22266 1.54297 6.98828 0.75 7.97266 0.75H12.4297C12.6758 0.75 12.8945 0.859375 13.0586 1.02344L14.7266 2.69141ZM13.6875 9.5H13.6602V4.25H12.375C11.8828 4.25 11.5 3.86719 11.5 3.375L11.4727 2.08984H7.97266C7.72656 2.08984 7.53516 2.28125 7.53516 2.52734V9.5C7.53516 9.74609 7.72656 9.9375 7.97266 9.9375H13.25C13.4688 9.9375 13.6875 9.74609 13.6875 9.5ZM8.4375 13V12.125H9.75V13C9.75 13.9844 8.95703 14.75 8 14.75H2.75C1.76562 14.75 1 13.9844 1 13L0.972656 6C0.972656 5.04297 1.76562 4.25 2.72266 4.25H5.375V5.58984H2.72266C2.50391 5.58984 2.28516 5.78125 2.28516 6.02734V13C2.28516 13.2461 2.47656 13.4375 2.72266 13.4375H8C8.21875 13.4375 8.4375 13.2461 8.4375 13Z" fill="#7F7F7F"/>
</svg>
