<svg width="16" height="15" viewBox="0 0 16 15" fill="none" xmlns="http://www.w3.org/2000/svg">
<path d="M14.4805 2.30859C15.1641 2.99219 15.1641 4.08594 14.4805 4.76953L5.34766 13.9023C5.26562 13.9844 5.18359 14.0117 5.10156 14.0391L1.51953 14.75C1.49219 14.75 1.4375 14.75 1.41016 14.75C1.16406 14.75 0.945312 14.5039 1 14.2031L1.71094 10.6211C1.73828 10.5391 1.76562 10.457 1.84766 10.4023L10.9805 1.26953C11.3086 0.941406 11.7734 0.75 12.2109 0.75C12.6484 0.75 13.1133 0.941406 13.4414 1.26953L14.4805 2.30859ZM4.58203 12.8086L5.26562 12.125H3.625V10.4844L2.94141 11.168L2.53125 13.2188L4.58203 12.8086ZM4.9375 10.8125H6.57812L11.418 6L9.75 4.35938L4.9375 9.17188V10.8125Z" fill="#7F7F7F"/>
</svg>
