<svg width="13" height="15" viewBox="0 0 13 15" fill="none" xmlns="http://www.w3.org/2000/svg">
<path d="M11.8125 2.9375C12.0312 2.9375 12.25 3.15625 12.25 3.375V3.8125C12.25 4.05859 12.0312 4.25 11.8125 4.25H11.375V13C11.375 13.9844 10.582 14.75 9.625 14.75H2.625C1.64062 14.75 0.875 13.9844 0.875 13V4.25H0.4375C0.191406 4.25 0 4.05859 0 3.8125V3.375C0 3.15625 0.191406 2.9375 0.4375 2.9375H2.67969L3.60938 1.40625C3.85547 0.996094 4.26562 0.75 4.73047 0.75H7.49219C7.95703 0.75 8.36719 0.996094 8.61328 1.40625L9.54297 2.9375H11.8125ZM4.67578 2.14453L4.21094 2.9375H8.01172L7.54688 2.14453C7.51953 2.11719 7.46484 2.0625 7.41016 2.0625H4.83984C4.75781 2.0625 4.70312 2.11719 4.67578 2.14453ZM9.625 13.4375C9.84375 13.4375 10.0625 13.2461 10.0625 13V4.25H2.1875V13C2.1875 13.2461 2.37891 13.4375 2.625 13.4375H9.625ZM6.125 12.125C5.87891 12.125 5.6875 11.9336 5.6875 11.6875V6C5.6875 5.78125 5.87891 5.5625 6.125 5.5625C6.34375 5.5625 6.5625 5.78125 6.5625 6V11.6875C6.5625 11.9336 6.34375 12.125 6.125 12.125ZM3.9375 12.125C3.69141 12.125 3.5 11.9336 3.5 11.6875V6C3.5 5.78125 3.69141 5.5625 3.9375 5.5625C4.15625 5.5625 4.375 5.78125 4.375 6V11.6875C4.375 11.9336 4.15625 12.125 3.9375 12.125ZM8.3125 12.125C8.06641 12.125 7.875 11.9336 7.875 11.6875V6C7.875 5.78125 8.06641 5.5625 8.3125 5.5625C8.53125 5.5625 8.75 5.78125 8.75 6V11.6875C8.75 11.9336 8.53125 12.125 8.3125 12.125Z" fill="#7F7F7F"/>
</svg>
